<svg xmlns="http://www.w3.org/2000/svg" width="256" height="256" viewBox="0 0 100 100"><rect width="100" height="100" rx="50" fill="#fffcfc"></rect><path d="M9.22 24.34L9.22 24.34L22.17 24.41Q32.33 24.41 40.03 31.73Q47.73 39.04 47.73 49.72Q47.73 60.39 40.20 68.02Q32.68 75.66 21.96 75.66L21.96 75.66L9.15 75.66Q4.88 75.66 3.83 73.91L3.83 73.91Q2.99 72.43 2.99 69.42L2.99 69.42L2.99 30.50Q2.99 28.82 3.10 28.05Q3.20 27.28 3.76 26.23L3.76 26.23Q4.74 24.34 9.22 24.34ZM22.17 63.26Q27.21 63.26 31.27 59.52Q35.34 55.77 35.34 50.10Q35.34 44.43 31.38 40.62Q27.43 36.80 22.11 36.80L22.11 36.80L15.38 36.80L15.38 63.26L22.17 63.26ZM58.51 24.34L58.51 24.34L71.45 24.41Q81.61 24.41 89.31 31.73Q97.00 39.04 97.00 49.72Q97.00 60.39 89.48 68.02Q81.96 75.66 71.25 75.66L71.25 75.66L58.44 75.66Q54.16 75.66 53.12 73.91L53.12 73.91Q52.27 72.43 52.27 69.42L52.27 69.42L52.27 30.50Q52.27 28.82 52.38 28.05Q52.48 27.28 53.05 26.23L53.05 26.23Q54.03 24.34 58.51 24.34ZM71.45 63.26Q76.50 63.26 80.56 59.52Q84.62 55.77 84.62 50.10Q84.62 44.43 80.66 40.62Q76.71 36.80 71.39 36.80L71.39 36.80L64.67 36.80L64.67 63.26L71.45 63.26Z" fill="#0d0d0d"></path></svg>